<svg width="34" height="22" viewBox="0 0 34 22" fill="none" xmlns="http://www.w3.org/2000/svg">
<g clip-path="url(#clip0_790_134)">
<path d="M24.9902 0C27.2189 0 29.1913 1.98468 30.0879 3.96582C30.9846 5.94795 33.392 15.0915 33.9375 17.4551C34.4826 19.8185 30.7557 22.1815 26.5742 22.1816C24.3925 19.6363 22.2849 16.7432 19.8467 15H14.2236C11.7708 16.7432 9.65086 19.6363 7.45605 22.1816C3.24942 22.1816 -0.494502 19.8185 0.0537109 17.4551C0.602399 15.0917 3.02467 5.94816 3.92676 3.96582C4.82862 1.98469 6.81272 0.000114396 9.05469 0H24.9902ZM8.85547 2.01074C8.38054 2.06286 7.83646 2.30078 7.27148 2.77344C6.62851 3.31144 6.08329 4.05636 5.74707 4.79492C5.37635 5.61 4.58965 8.20768 3.78418 11.1035C3.19654 13.2162 2.6372 15.345 2.28223 16.7588L2.00195 17.9072C1.95545 18.1081 1.97009 18.5603 2.69727 19.124C3.2938 19.5864 5.26475 20.0018 6.56348 20.1357C6.88417 19.7496 7.20928 19.3522 7.54102 18.9434C8.08243 18.2761 8.6471 17.5798 9.22168 16.9062C10.3602 15.5716 11.6785 14.3885 13.1113 13.3701L13.6309 13H20.5342L21.0557 13.373C22.4809 14.3921 23.7004 15.5757 24.832 16.9102C25.4032 17.5837 25.9638 18.2811 26.502 18.9482C26.8301 19.3551 27.1525 19.7504 27.4697 20.1348C28.7514 20 30.7097 19.5872 31.2988 19.1279C32.0177 18.5673 32.036 18.1133 31.9883 17.9053L31.71 16.7559C31.3571 15.3419 30.8008 13.2132 30.2168 11.1006C29.4161 8.20421 28.6343 5.60492 28.2656 4.79004C27.9311 4.05089 27.3889 3.30754 26.751 2.77051C26.1097 2.23085 25.4991 2 24.9902 2H9.05469L8.85547 2.01074ZM12.0098 7H14.0098V9H12.0098V11H10.0098V9H8.00977V7H10.0098V5H12.0098V7ZM24.0098 11H22.0098V9H24.0098V11ZM22.0098 9H20.0098V7H22.0098V9ZM26.0098 9H24.0098V7H26.0098V9ZM24.0098 7H22.0098V5H24.0098V7Z" fill="white"/>
</g>
<defs>
<clipPath id="clip0_790_134">
<rect width="34" height="22" fill="white"/>
</clipPath>
</defs>
</svg>
