<svg width="36" height="22" viewBox="0 0 36 22" fill="none" xmlns="http://www.w3.org/2000/svg">
<path d="M33 0C34.6569 0 36 1.34315 36 3V19C36 20.6569 34.6569 22 33 22H3C1.34315 22 4.83199e-08 20.6569 0 19V3C0 1.34315 1.34315 4.83192e-08 3 0H33ZM12 15C11.4477 15 11 15.4477 11 16V18C11 18.5523 11.4477 19 12 19H24C24.5523 19 25 18.5523 25 18V16C25 15.4477 24.5523 15 24 15H12ZM5 9C4.44772 9 4 9.44772 4 10V12C4 12.5523 4.44772 13 5 13H7C7.55228 13 8 12.5523 8 12V10C8 9.44772 7.55228 9 7 9H5ZM11 9C10.4477 9 10 9.44772 10 10V12C10 12.5523 10.4477 13 11 13H13C13.5523 13 14 12.5523 14 12V10C14 9.44772 13.5523 9 13 9H11ZM17 9C16.4477 9 16 9.44772 16 10V12C16 12.5523 16.4477 13 17 13H19C19.5523 13 20 12.5523 20 12V10C20 9.44772 19.5523 9 19 9H17ZM23 9C22.4477 9 22 9.44772 22 10V12C22 12.5523 22.4477 13 23 13H25C25.5523 13 26 12.5523 26 12V10C26 9.44772 25.5523 9 25 9H23ZM29 9C28.4477 9 28 9.44772 28 10V12C28 12.5523 28.4477 13 29 13H31C31.5523 13 32 12.5523 32 12V10C32 9.44772 31.5523 9 31 9H29ZM5 3C4.44772 3 4 3.44772 4 4V6C4 6.55228 4.44772 7 5 7H7C7.55228 7 8 6.55228 8 6V4C8 3.44772 7.55228 3 7 3H5ZM11 3C10.4477 3 10 3.44772 10 4V6C10 6.55228 10.4477 7 11 7H13C13.5523 7 14 6.55228 14 6V4C14 3.44772 13.5523 3 13 3H11ZM17 3C16.4477 3 16 3.44772 16 4V6C16 6.55228 16.4477 7 17 7H19C19.5523 7 20 6.55228 20 6V4C20 3.44772 19.5523 3 19 3H17ZM23 3C22.4477 3 22 3.44772 22 4V6C22 6.55228 22.4477 7 23 7H25C25.5523 7 26 6.55228 26 6V4C26 3.44772 25.5523 3 25 3H23ZM29 3C28.4477 3 28 3.44772 28 4V6C28 6.55228 28.4477 7 29 7H31C31.5523 7 32 6.55228 32 6V4C32 3.44772 31.5523 3 31 3H29Z" fill="white"/>
</svg>
