<svg width="16" height="26" viewBox="0 0 16 26" fill="none" xmlns="http://www.w3.org/2000/svg">
<path d="M13 0C14.6568 0 15.9999 1.34325 16 3V23C16 24.6569 14.6569 26 13 26H3C1.34315 26 0 24.6569 0 23L0 3C0.000117603 1.34325 1.34322 0 3 0L13 0ZM8 22C7.17157 22 6.5 22.6716 6.5 23.5C6.5 24.3284 7.17157 25 8 25C8.82843 25 9.5 24.3284 9.5 23.5C9.5 22.6716 8.82843 22 8 22ZM4.06055 2C2.95598 2 2.06055 2.89543 2.06055 4L2.06055 19C2.06055 20.1046 2.95598 21 4.06055 21H12.0605C13.1651 21 14.0605 20.1046 14.0605 19V4C14.0605 2.89543 13.1651 2 12.0605 2L4.06055 2Z" fill="white"/>
</svg>
