<svg width="39" height="38" viewBox="0 0 39 38" fill="none" xmlns="http://www.w3.org/2000/svg">
<path d="M10.984 26.0434C11.087 26.0016 11.1916 25.9584 11.2975 25.914C12.9298 25.2289 14.998 24.1857 16.3708 22.8128C16.8477 22.3359 17.1994 21.573 17.4799 20.7863C17.7749 19.9587 18.0444 18.9447 18.2905 17.831C18.7834 15.6008 19.2022 12.8805 19.541 10.26C19.5427 10.2476 19.5443 10.2352 19.5459 10.2228C19.8659 12.7209 20.2775 15.3149 20.7957 17.4944C21.063 18.6186 21.3637 19.6547 21.7037 20.5201C22.0343 21.3616 22.4398 22.1422 22.963 22.6655C24.5715 24.2739 26.4382 25.3527 27.8827 26.0268C27.9024 26.036 27.922 26.0452 27.9416 26.0542C27.8074 26.1139 27.6701 26.1761 27.5304 26.2406C26.0017 26.9468 24.0681 27.9906 22.8116 29.2618C21.4879 30.6008 20.4455 32.6674 19.7513 34.3012C19.698 34.4266 19.6465 34.5502 19.5967 34.6716C19.5466 34.5489 19.4948 34.424 19.4411 34.2972C18.7484 32.6615 17.7049 30.5918 16.3708 29.2577C15.0363 27.9233 12.966 26.8799 11.3298 26.1873C11.2129 26.1378 11.0975 26.0899 10.984 26.0434Z" stroke="#FFCECA" stroke-width="2"/>
<path d="M30 17L30 9M26 13L34 13" stroke="#FFCECA" stroke-width="2" stroke-linecap="round"/>
</svg>
