<svg width="28" height="28" viewBox="0 0 28 28" fill="none" xmlns="http://www.w3.org/2000/svg">
<path d="M4.39771 18.1732C4.04895 18.0478 4.05065 17.4952 4.40007 17.3716C5.9771 16.8137 8.70646 15.6895 10.254 14.142C11.6979 12.6981 12.7727 5.57004 13.363 0.583135C13.4168 0.128677 14.2793 0.136302 14.3294 0.591184C14.8616 5.42486 15.9019 12.2659 17.642 14.006C19.4441 15.8081 21.6494 16.859 22.9672 17.3725C23.308 17.5053 23.3184 18.0613 22.979 18.1974C21.4931 18.7935 18.9217 19.9618 17.506 21.394C16.0031 22.9144 14.85 25.6957 14.2781 27.2787C14.153 27.6249 13.6096 27.6242 13.4853 27.2777C12.9164 25.6921 11.7662 22.9062 10.254 21.394C8.75062 19.8908 5.98857 18.7456 4.39771 18.1732Z" fill="white"/>
</svg>
