<svg width="17" height="13" viewBox="0 0 17 13" fill="none" xmlns="http://www.w3.org/2000/svg">
<path d="M15.1309 0.00224037C16.0982 -0.0492871 17.4483 0.794879 16.8541 1.82586C16.127 3.0868 15.3163 3.35709 15.3163 3.35709C15.2909 3.37643 13.0587 5.07636 11.9333 6.40751C11.0734 7.42466 8.37434 10.5218 7.12761 11.9517C6.77569 12.6831 6.07269 13.2787 5.3707 12.863C4.1267 12.1263 3.86959 11.3418 3.86959 11.3418C3.86153 11.3296 3.11453 10.1956 2.19795 9.24994C1.27638 8.29914 0.304882 8.10885 0.092035 7.5258C-0.120667 6.94275 0.0577782 6.11468 0.397412 5.7705C0.64646 5.51821 0.96342 5.38052 1.34825 5.35755C1.68792 5.3346 1.9715 5.43755 2.19795 5.66701C2.58229 6.0565 3.28674 6.37751 3.6822 6.77826L4.99592 7.91865C5.528 8.45785 5.86635 8.78917 6.1748 9.09119C6.94283 8.17155 8.98198 5.75865 9.96425 4.85919C11.1887 3.73796 12.1267 2.5965 12.1267 2.5965C13.0554 1.65533 13.3579 1.1097 13.9758 0.483515C14.2702 0.185321 14.6554 0.0251834 15.1309 0.00224037Z" fill="#D5FF95"/>
</svg>
