<svg width="42" height="42" viewBox="0 0 42 42" fill="none" xmlns="http://www.w3.org/2000/svg">
<path d="M35.578 7.39866C32.8593 6.12663 29.9523 5.20218 26.9131 4.67578C26.5398 5.3506 26.1038 6.25825 25.8031 6.98027C22.5724 6.49441 19.3713 6.49441 16.2 6.98027C15.8994 6.25825 15.4535 5.3506 15.0769 4.67578C12.0344 5.20218 9.12407 6.13003 6.40534 7.4054C0.921625 15.692 -0.56492 23.7728 0.178354 31.7388C3.81544 34.4549 7.34022 36.1049 10.8055 37.1845C11.6611 36.007 12.4242 34.7552 13.0816 33.436C11.8296 32.9603 10.6304 32.3732 9.49738 31.6916C9.79797 31.4689 10.092 31.2361 10.3761 30.9965C17.2868 34.2289 24.7956 34.2289 31.6238 30.9965C31.9112 31.2361 32.2052 31.4689 32.5025 31.6916C31.3661 32.3765 30.1637 32.9636 28.9117 33.4394C29.569 34.7552 30.3288 36.0104 31.1877 37.1879C34.6564 36.1082 38.1844 34.4583 41.8215 31.7388C42.6936 22.5042 40.3317 14.4976 35.578 7.39866ZM14.0231 26.8398C11.9485 26.8398 10.2472 24.9031 10.2472 22.5446C10.2472 20.1862 11.9122 18.2461 14.0231 18.2461C16.134 18.2461 17.8352 20.1828 17.7989 22.5446C17.8022 24.9031 16.134 26.8398 14.0231 26.8398ZM27.9768 26.8398C25.9023 26.8398 24.201 24.9031 24.201 22.5446C24.201 20.1862 25.8659 18.2461 27.9768 18.2461C30.0877 18.2461 31.789 20.1828 31.7526 22.5446C31.7526 24.9031 30.0877 26.8398 27.9768 26.8398Z" fill="white"/>
</svg>
