<svg width="22" height="21" viewBox="0 0 22 21" fill="none" xmlns="http://www.w3.org/2000/svg">
<path d="M0.0498002 2.13109C-0.0909802 1.70399 0.0700478 1.2288 0.462135 1.00856C5.88355 -2.03668 9.78187 2.90922 16.904 1.60486C17.418 1.51073 17.9391 1.79101 18.1044 2.28674L21.47 12.3838C21.6543 12.9364 21.3271 13.533 20.7531 13.6317C15.1576 14.5936 11.5566 11.7109 7.60346 12.0238C7.01826 12.0701 6.68258 12.6713 6.86635 13.2288L8.63826 18.6044C8.81071 19.1276 8.52753 19.6918 8.00494 19.8661L7.05649 20.1824C6.53126 20.3576 5.96366 20.0727 5.79033 19.5469L0.0498002 2.13109Z" fill="white"/>
</svg>
