<svg width="23" height="20" viewBox="0 0 23 20" fill="none" xmlns="http://www.w3.org/2000/svg">
<path d="M0.551758 1.7258C6.55166 -2.27398 11.0001 3.40978 19 1.40953L23 13.4096C15.5952 15.2611 11.6175 10.2589 6.30859 12.6762L8.44824 19.0941L6.55176 19.7269L0.551758 1.7258ZM5.26562 2.00328C4.68209 2.01685 4.07959 2.11674 3.42871 2.37242L6.16309 10.5746C7.17704 10.2014 8.1765 10.0274 9.17188 10.0043C10.8337 9.96566 12.395 10.3531 13.7764 10.7299C15.9783 11.3304 17.9741 11.9562 20.3564 11.806L17.6533 3.69664C13.9491 4.17921 11.0237 3.21654 8.72363 2.58922C7.3553 2.21603 6.29108 1.97952 5.26562 2.00328Z" fill="white"/>
</svg>
