<svg width="22" height="24" viewBox="0 0 22 24" fill="none" xmlns="http://www.w3.org/2000/svg">
<path d="M21.5338 15.0967C22.0259 15.5422 22.1431 16.2751 21.8151 16.8574L20.5241 19.1426C20.196 19.7249 19.5138 19.99 18.8922 19.7783L15.9528 18.7852C15.4306 19.1865 14.865 19.5263 14.2565 19.791L13.6344 22.875C13.5049 23.5279 12.939 24 12.2828 24L9.70178 24C9.04995 24 8.48404 23.5324 8.35022 22.875L7.72913 19.791C7.12483 19.5219 6.55513 19.1866 6.03284 18.7852L3.10608 19.7783C2.48449 19.9901 1.80234 19.7205 1.47425 19.1426L0.18323 16.8574C-0.14053 16.2795 -0.0286118 15.5423 0.463503 15.0967L2.76917 13.002C2.73463 12.6755 2.71253 12.3397 2.71253 12C2.71253 11.6603 2.73032 11.3245 2.76917 10.998L0.468386 8.90723C-0.0235935 8.46176 -0.140606 7.72974 0.187137 7.14746L1.47815 4.86133C1.80629 4.27917 2.48847 4.01483 3.10999 4.22656L6.03675 5.21875C6.5547 4.81735 7.12446 4.47757 7.73304 4.21289L8.35901 1.125C8.48852 0.472058 9.05442 -5.36987e-07 9.71057 -5.37188e-07L12.2916 -4.24366e-07C12.9478 -4.24567e-07 13.5137 0.472058 13.6432 1.125L14.2692 4.20898C14.8734 4.47808 15.4432 4.81343 15.9655 5.21484L18.8922 4.22168C19.5138 4.00997 20.196 4.2751 20.5241 4.85742L21.8151 7.14258C22.1388 7.7205 22.0259 8.45776 21.5338 8.90332L19.2291 10.998C19.2637 11.3245 19.2848 11.6603 19.2848 12C19.2848 12.3397 19.268 12.6755 19.2291 13.002L21.5338 15.0967ZM15.5836 12C15.5836 9.45099 13.5309 7.38477 10.9996 7.38477C8.46846 7.38492 6.41663 9.45109 6.41663 12C6.41663 14.5489 8.46846 16.6151 10.9996 16.6152C13.5309 16.6152 15.5836 14.549 15.5836 12Z" fill="white"/>
</svg>
