<svg width="23" height="21" viewBox="0 0 23 21" fill="none" xmlns="http://www.w3.org/2000/svg">
<path d="M19.2402 10.5312C18.6879 10.5312 18.2402 10.979 18.2402 11.5312L18.2402 19.5332C18.2402 20.0855 17.7925 20.5332 17.2402 20.5332L15.2412 20.5332C14.6889 20.5332 14.2412 20.0855 14.2412 19.5332L14.2412 13.5312C14.2412 12.979 13.7935 12.5312 13.2412 12.5312L9.24121 12.5312C8.68893 12.5312 8.24121 12.979 8.24121 13.5312L8.24121 19.5332C8.24121 20.0855 7.79349 20.5332 7.24121 20.5332L5.24023 20.5332C4.68795 20.5332 4.24023 20.0855 4.24023 19.5332L4.24023 11.5312C4.24023 10.979 3.79252 10.5312 3.24023 10.5312L1.00235 10.5312C0.0670436 10.5312 -0.356355 9.36177 0.362175 8.76302L10.6001 0.231703C10.9709 -0.0773222 11.5096 -0.0773225 11.8804 0.231703L22.1183 8.76302C22.8368 9.36178 22.4134 10.5312 21.4781 10.5312L19.2402 10.5312Z" fill="white"/>
</svg>
