<svg width="16" height="22" viewBox="0 0 16 22" fill="none" xmlns="http://www.w3.org/2000/svg">
<path d="M14 9.14258C13.9999 8.66798 13.6289 8.33301 13.25 8.33301H2.75C2.37112 8.33301 2.00015 8.66798 2 9.14258V18.29C2 18.7648 2.37105 19.0996 2.75 19.0996H13.25C13.629 19.0996 14 18.7648 14 18.29V9.14258ZM7 14.6562V12.2812C7 11.729 7.44772 11.2812 8 11.2812C8.55228 11.2812 9 11.729 9 12.2812V14.6562C9 15.2085 8.55228 15.6562 8 15.6562C7.44772 15.6562 7 15.2085 7 14.6562ZM8 2C5.70509 2 3.80054 3.89225 3.75195 6.33301H12.248C12.1995 3.89225 10.2949 2 8 2ZM16 18.29C16 19.8058 14.796 21.0996 13.25 21.0996H2.75C1.20395 21.0996 0 19.8058 0 18.29V9.14258C0.000113952 7.97528 0.715477 6.94268 1.75 6.52832V6.42871C1.75 2.90096 4.50812 0 8 0C11.4919 0 14.25 2.90096 14.25 6.42871V6.52832C15.2845 6.94268 15.9999 7.97528 16 9.14258V18.29Z" fill="white"/>
</svg>
