<svg width="26" height="26" viewBox="0 0 26 26" fill="none" xmlns="http://www.w3.org/2000/svg">
<path d="M7 18.002C7.55217 18.0021 8 18.4497 8 19.002C8 19.5542 7.55217 20.0018 7 20.002H3.7207L2.38672 24.002H23.6133L22.2793 20.002H19C18.4477 20.002 18 19.5542 18 19.002C18 18.4497 18.4477 18.002 19 18.002H23C23.4302 18.0021 23.8121 18.2774 23.9482 18.6855L25.9482 24.6855C26.0498 24.9904 25.9994 25.3262 25.8115 25.5869C25.6236 25.8476 25.3213 26.0019 25 26.002H1C0.678616 26.002 0.376435 25.8476 0.188477 25.5869C0.000525268 25.3261 -0.0498915 24.9905 0.0517578 24.6855L2.05176 18.6855L2.11328 18.5391C2.2835 18.2128 2.62339 18.002 3 18.002H7ZM13 0C17.2487 0.000130142 20.6934 3.44459 20.6934 7.69336C20.6933 11.9421 16.8465 17.3093 13 20.002C8.76893 17.3093 5.30671 11.9421 5.30664 7.69336C5.30664 3.44458 8.75124 0.000110329 13 0ZM13 4.61523C11.3005 4.61533 9.92285 5.9929 9.92285 7.69238C9.92292 9.39181 11.3006 10.7694 13 10.7695C14.6994 10.7694 16.0771 9.39179 16.0771 7.69238C16.0771 5.99292 14.6994 4.61536 13 4.61523Z" fill="white"/>
</svg>
