<svg width="20" height="24" viewBox="0 0 20 24" fill="none" xmlns="http://www.w3.org/2000/svg">
<path d="M19.2588 2.71398C19.7368 2.99003 19.9006 3.60201 19.625 4.08019L16.0478 10.2775C17.1919 11.661 17.8787 13.4367 17.8789 15.3722C17.8789 19.7904 14.297 23.372 9.87888 23.3722C5.46069 23.3721 1.87888 19.7904 1.87888 15.3722C1.87906 13.4363 2.56746 11.6611 3.71189 10.2775L0.133762 4.08214C-0.142084 3.6039 0.0218032 2.992 0.499973 2.71593L4.96872 0.13683C5.44688 -0.138946 6.0588 0.0240897 6.33493 0.502064L9.87888 6.64074L13.4238 0.500111C13.7 0.0222406 14.3119 -0.142013 14.79 0.1339L19.2588 2.71398ZM11.3808 13.3068L9.87888 10.3732L8.37693 13.3068L5.12302 13.8282L7.44919 16.1632L6.93943 19.4181L9.87888 17.9278L12.8174 19.4181L12.3086 16.1632L14.6338 13.8282L11.3808 13.3068Z" fill="white"/>
</svg>
