<svg width="16" height="18" viewBox="0 0 16 18" fill="none" xmlns="http://www.w3.org/2000/svg">
<path d="M10.1199 0.0165657C8.96122 -0.114741 7.8618 0.545409 7.46455 1.61097C7.37504 1.85111 7.34359 2.11073 7.32887 2.38288C7.31781 2.58819 7.31506 2.83292 7.31452 3.12115L7.31424 3.52532C7.31424 3.52959 7.31424 3.53385 7.31424 3.5381V10.7035C6.53738 9.99509 5.49227 9.56125 4.34283 9.56125C1.94435 9.56125 0 11.4503 0 13.7806C0 16.111 1.94435 18 4.34283 18C6.74135 18 8.68566 16.111 8.68566 13.7806V5.97309C8.78148 6.02272 8.88525 6.07308 8.99898 6.12825L11.4744 7.33076C11.8568 7.5165 12.1681 7.66769 12.4231 7.7757C12.6801 7.88461 12.9332 7.97344 13.1943 8.00302C14.3529 8.1343 15.4523 7.47413 15.8496 6.40862C15.9392 6.16848 15.9706 5.90884 15.9854 5.63669C15.9999 5.3668 15.9999 5.02877 15.9999 4.61337L16 4.5398C16.0001 4.23089 16.0002 3.98924 15.9551 3.76024C15.839 3.17077 15.5035 2.64346 15.0128 2.27892C14.8221 2.1373 14.5997 2.02934 14.3152 1.89132L11.8398 0.688832C11.4574 0.503046 11.1462 0.351859 10.8912 0.243861C10.6341 0.134957 10.381 0.0461546 10.1199 0.0165657Z" fill="#FFC67B"/>
</svg>
