<svg width="31" height="24" viewBox="0 0 31 24" fill="none" xmlns="http://www.w3.org/2000/svg">
<path d="M3.85574 12.8399C4.17858 17.4629 6.71857 21.4746 10.4195 23.8189H0.0219725L0 23.6762C1.09109 23.3313 1.86154 22.9379 2.36247 22.5106C2.8618 22.0847 3.09102 21.6272 3.10839 21.1491C3.12584 20.6682 2.92945 20.1535 2.55094 19.6144C2.17269 19.0757 1.61656 18.5184 0.925411 17.9543L0.818545 17.867L0.950808 17.8276C1.7802 17.5806 2.2542 16.9777 2.49887 16.2001C2.74447 15.4195 2.75684 14.4676 2.66138 13.5402C2.56604 12.614 2.36387 11.7186 2.18526 11.0541C2.096 10.7221 2.01261 10.4481 1.9517 10.2573C1.92125 10.1619 1.89643 10.0872 1.87922 10.0366C1.87061 10.0112 1.86391 9.99175 1.85938 9.97878C1.85714 9.97234 1.85539 9.96746 1.85425 9.96422C1.85368 9.96261 1.85325 9.96131 1.85296 9.96051C1.85284 9.96015 1.85274 9.95984 1.85268 9.95966L1.85253 9.95951L1.98294 9.89559L3.85574 12.8399ZM19.0153 0C25.5512 0 30.8496 5.2984 30.8496 11.8343C30.8496 18.3702 25.5512 23.6686 19.0153 23.6686C12.4794 23.6686 7.181 18.3702 7.181 11.8343C7.181 5.2984 12.4794 0 19.0153 0ZM14.5315 16.6421C15.706 17.738 17.2822 18.4089 19.0153 18.4089C19.3667 18.4089 19.7116 18.381 20.048 18.3279L19.3114 16.0607C19.2135 16.0675 19.1148 16.0713 19.0153 16.0713C18.0637 16.0713 17.1854 15.7575 16.4781 15.2278L14.5315 16.6421ZM23.0895 13.0011C22.8269 13.9198 22.2618 14.7106 21.509 15.2596L22.2552 17.556C23.9231 16.6095 25.1366 14.9552 25.4866 13.0011H23.0895ZM13.1335 8.89414C12.6904 9.77891 12.4407 10.7774 12.4407 11.8343C12.4407 12.8894 12.6897 13.8863 13.1314 14.7699L15.0638 13.3658C14.8796 12.8908 14.7783 12.3744 14.7783 11.8343C14.7783 11.2924 14.8803 10.7743 15.0657 10.2979L13.1335 8.89414ZM19.0154 9.94054C17.9695 9.94054 17.1215 10.7885 17.1215 11.8344C17.1216 12.8804 17.9695 13.7284 19.0154 13.7284C20.0614 13.7283 20.9093 12.8804 20.9094 11.8344C20.9094 10.7885 20.0614 9.94057 19.0154 9.94054ZM21.509 8.40889C22.2607 8.95707 22.8251 9.7465 23.0882 10.6635H25.4859C25.135 8.71115 23.922 7.05832 22.2552 6.11248L21.509 8.40889ZM19.0153 5.25969C17.284 5.25969 15.7094 5.92923 14.5352 7.02305L16.4822 8.43756C17.1888 7.90979 18.0656 7.59733 19.0153 7.59733C19.1148 7.59733 19.2135 7.601 19.3114 7.60775L20.048 5.34059C19.7116 5.28751 19.3667 5.25969 19.0153 5.25969Z" fill="white"/>
</svg>
