<svg width="29" height="27" viewBox="0 0 29 27" fill="none" xmlns="http://www.w3.org/2000/svg">
<path d="M22 10C22 10 23 11.5 23 14C23 16.5 22 18 22 18M26 6C26 6 28 9.5 28 14.25C28 19 26 22.5 26 22.5M8.28247 8L3.5 8C2.39543 8 1.5 8.89543 1.5 10L1.5 18C1.5 19.1046 2.39543 20 3.5 20L8.28247 20C8.74635 20 9.1958 20.1612 9.55388 20.4561L14.2286 24.3059C15.5333 25.3804 17.5 24.4523 17.5 22.762L17.5 5.23797C17.5 3.54773 15.5333 2.61961 14.2286 3.69411L9.55389 7.54386C9.1958 7.83875 8.74635 8 8.28247 8Z" stroke="white" stroke-width="2"/>
</svg>
