<svg width="29" height="27" viewBox="0 0 29 27" fill="none" xmlns="http://www.w3.org/2000/svg">
<path d="M28.25 10.5L21.25 17.5M28.25 17.5L21.25 10.5M8.32551 8L3.54305 8C2.43848 8 1.54305 8.89543 1.54305 10L1.54305 18C1.54305 19.1046 2.43848 20 3.54304 20L8.32551 20C8.78939 20 9.23884 20.1612 9.59693 20.4561L14.2716 24.3059C15.5764 25.3804 17.543 24.4523 17.543 22.762L17.543 5.23797C17.543 3.54773 15.5764 2.61961 14.2716 3.69411L9.59693 7.54386C9.23884 7.83875 8.78939 8 8.32551 8Z" stroke="white" stroke-width="2"/>
</svg>
